<svg xmlns="http://www.w3.org/2000/svg" version="1.1" xmlns:xlink="http://www.w3.org/1999/xlink" xmlns:svgjs="http://svgjs.dev/svgjs" width="1000" height="1000" viewBox="0 0 1000 1000"><rect width="1000" height="1000" fill="#000000"></rect><g transform="matrix(0.7,0,0,0.7,149.57577148694173,286.45831251017205)"><svg viewBox="0 0 396 242" data-background-color="#1f2d5a" preserveAspectRatio="xMidYMid meet" height="611" width="1000" xmlns="http://www.w3.org/2000/svg" xmlns:xlink="http://www.w3.org/1999/xlink"><g id="tight-bounds" transform="matrix(1,0,0,1,0.2399921302443886,-0.1744485093795589)"><svg viewBox="0 0 395.52 242.34889701875912" height="242.34889701875912" width="395.52"><g><svg viewBox="0 0 395.52 242.34889701875912" height="242.34889701875912" width="395.52"><g transform="matrix(1,0,0,1,0,156.54778317341027)"><svg viewBox="0 0 395.52 85.80111384534885" height="85.80111384534885" width="395.52"><g id="textblocktransform"><svg viewBox="0 0 395.52 85.80111384534885" height="85.80111384534885" width="395.52" id="textblock"><g><svg viewBox="0 0 395.52 60.78092237677977" height="60.78092237677977" width="395.52"><g transform="matrix(1,0,0,1,0,0)"><svg width="395.52" viewBox="1.030730000000001 -33.08309849107161 294.9213199921557 45.32157849107161" height="60.78092237677977" data-palette-color="#fbfbfb"><path d="M5.618-22.799l4.713 34.409-4.587 0.628-4.713-34.408zM22.137-9.265l0.505 3.685-15.386 2.108-0.505-3.686zM22.352-25.091l0.507 3.706-17.724 2.428-0.508-3.706zM33.121-26.324l4.087 34.489-4.588 0.543-4.087-34.488zM65.876 1.61l0.36 3.703-17.289 1.679-0.36-3.702zM46.495-27.663l3.358 34.567-4.608 0.448-3.358-34.567zM70.252-29.713l4.491-0.29 13.143 27.591 9.479-29.05 4.491-0.29-11.824 35.565-3.503 0.226zM68.795-29.619l3.952-0.255 2.011 21.074 0.874 13.542-4.601 0.297zM99.361-31.591l3.952-0.255 2.236 34.658-4.59 0.296-0.874-13.542zM146.158-1.818l0.065 3.719-17.368 0.301-0.064-3.719zM129.162-32.538l0.603 34.725-4.629 0.08-0.603-34.725zM176.488-16.189l-0.023 2.22c-0.036 3.466-0.64 6.44-1.812 8.922-1.166 2.488-2.799 4.391-4.899 5.709-2.094 1.325-4.557 1.973-7.39 1.944v0c-2.733-0.028-5.149-0.726-7.249-2.094-2.106-1.362-3.743-3.299-4.91-5.811-1.168-2.505-1.734-5.491-1.698-8.958v0l0.023-2.22c0.036-3.466 0.66-6.447 1.872-8.941 1.212-2.494 2.879-4.401 4.999-5.719 2.12-1.325 4.547-1.973 7.28-1.945v0c2.833 0.029 5.289 0.728 7.369 2.096 2.073 1.361 3.673 3.301 4.801 5.82 1.127 2.518 1.673 5.511 1.637 8.977zM171.886-14.016l0.023-2.27c0.028-2.767-0.321-5.104-1.048-7.011-0.727-1.908-1.785-3.362-3.175-4.363-1.39-1.001-3.071-1.512-5.045-1.532v0c-1.893-0.019-3.548 0.457-4.965 1.429-1.417 0.972-2.518 2.404-3.304 4.296-0.793 1.892-1.204 4.221-1.232 6.987v0l-0.023 2.27c-0.029 2.78 0.337 5.127 1.097 7.042 0.76 1.915 1.842 3.372 3.245 4.374 1.403 1.001 3.051 1.512 4.945 1.531v0c1.987 0.02 3.682-0.455 5.085-1.428 1.403-0.972 2.478-2.408 3.224-4.307 0.753-1.899 1.144-4.238 1.173-7.018zM193.659-2.214l11.486-29.007 5.025 0.22-14.353 34.136-3.576-0.156zM185.434-32.081l8.824 29.893 1.03 5.3-3.577-0.156-11.302-35.257zM235.254 1.849l-0.261 3.711-18.305-1.29 0.261-3.711zM220.038-30.31l-2.442 34.644-4.619-0.326 2.442-34.644zM233.951-14.363l-0.262 3.711-15.87-1.119 0.261-3.71zM237.195-29.101l-0.263 3.731-18.065-1.274 0.263-3.73zM243.725-28.438l11.443 1.138c2.594 0.258 4.754 0.871 6.48 1.84 1.726 0.969 2.983 2.273 3.771 3.913 0.788 1.639 1.071 3.58 0.848 5.822v0c-0.158 1.586-0.623 2.993-1.394 4.223-0.766 1.237-1.798 2.253-3.097 3.048-1.292 0.803-2.79 1.344-4.493 1.624v0l-1.333 0.37-10.727-1.067 0.318-3.707 8.071 0.803c1.645 0.164 3.041 0.004 4.187-0.478 1.153-0.475 2.05-1.176 2.692-2.104 0.648-0.927 1.031-1.984 1.149-3.172v0c0.2-2.01-0.234-3.678-1.301-5.003-1.067-1.332-2.914-2.129-5.541-2.39v0l-6.836-0.68-3.067 30.838-4.607-0.459zM260.439 8.125l-6.821-16.496 4.816 0.479 6.969 16.22-0.029 0.288zM289.283 2.908v0c0.14-1.084 0.031-2.036-0.326-2.855-0.365-0.814-1.097-1.604-2.194-2.371-1.104-0.768-2.706-1.61-4.806-2.528v0c-1.636-0.709-3.098-1.463-4.386-2.261-1.282-0.798-2.36-1.663-3.234-2.596-0.874-0.933-1.502-1.952-1.883-3.057-0.388-1.106-0.495-2.329-0.322-3.671v0c0.233-1.798 0.926-3.342 2.081-4.632 1.147-1.283 2.65-2.218 4.507-2.805 1.857-0.587 3.959-0.728 6.307-0.424v0c2.605 0.337 4.75 1.115 6.434 2.334 1.691 1.22 2.906 2.685 3.646 4.394 0.74 1.709 0.994 3.463 0.762 5.261v0l-4.612-0.596c0.168-1.296 0.042-2.482-0.377-3.558-0.411-1.082-1.138-1.982-2.181-2.702-1.05-0.721-2.434-1.192-4.153-1.414v0c-1.607-0.208-2.967-0.135-4.082 0.218-1.108 0.354-1.97 0.915-2.587 1.682-0.61 0.768-0.985 1.691-1.124 2.769v0c-0.124 0.959 0.043 1.847 0.502 2.666 0.451 0.825 1.23 1.611 2.337 2.359 1.106 0.755 2.563 1.521 4.371 2.3v0c2.504 1.063 4.531 2.182 6.079 3.357 1.548 1.182 2.634 2.478 3.258 3.89 0.631 1.413 0.831 3.008 0.601 4.787v0c-0.241 1.864-0.947 3.427-2.118 4.687-1.178 1.259-2.715 2.15-4.611 2.671-1.89 0.529-4.052 0.636-6.485 0.321v0c-1.593-0.206-3.128-0.63-4.605-1.272-1.483-0.642-2.796-1.484-3.938-2.526-1.135-1.048-1.992-2.271-2.571-3.67-0.585-1.4-0.767-2.959-0.544-4.678v0l4.592 0.594c-0.153 1.183-0.057 2.231 0.289 3.143 0.346 0.912 0.88 1.694 1.602 2.345 0.715 0.657 1.562 1.18 2.54 1.568 0.971 0.394 2.008 0.663 3.113 0.806v0c1.593 0.206 2.968 0.155 4.123-0.152 1.156-0.308 2.074-0.834 2.755-1.58 0.681-0.745 1.095-1.68 1.24-2.804z" opacity="1" transform="matrix(1,0,0,1,0,0)" fill="#ffffff" class="wordmark-text-0" data-fill-palette-color="primary" id="text-0"></path></svg></g></svg></g><g transform="matrix(1,0,0,1,0,65.67909290514788)"><svg viewBox="0 0 395.52 20.12202094020097" height="20.12202094020097" width="395.52"><g transform="matrix(1,0,0,1,0,0)"><svg width="395.52" viewBox="3.85 -35.6 711.5 36.2" height="20.12202094020097" data-palette-color="#fbfbfb"><path d="M20.45-28.7Q16.25-28.7 14.1-26.88 11.95-25.05 11.95-21.4L11.95-21.4 11.95-19.25 26.35-19.25 26.35-12.75 11.95-12.75 11.95 0 3.85 0 3.85-21.35Q3.85-28.1 8.08-31.85 12.3-35.6 19.9-35.6L19.9-35.6Q22.9-35.6 25.55-34.98 28.2-34.35 30.15-33.15L30.15-33.15 27.65-26.75Q24.65-28.7 20.45-28.7L20.45-28.7ZM51.25 0.6Q45.8 0.6 41.42-1.75 37.05-4.1 34.57-8.22 32.1-12.35 32.1-17.5L32.1-17.5Q32.1-22.65 34.57-26.78 37.05-30.9 41.42-33.25 45.8-35.6 51.25-35.6L51.25-35.6Q56.7-35.6 61.05-33.25 65.4-30.9 67.9-26.78 70.4-22.65 70.4-17.5L70.4-17.5Q70.4-12.35 67.9-8.22 65.4-4.1 61.05-1.75 56.7 0.6 51.25 0.6L51.25 0.6ZM51.25-6.3Q54.35-6.3 56.85-7.73 59.35-9.15 60.77-11.7 62.2-14.25 62.2-17.5L62.2-17.5Q62.2-20.75 60.77-23.3 59.35-25.85 56.85-27.28 54.35-28.7 51.25-28.7L51.25-28.7Q48.15-28.7 45.65-27.28 43.15-25.85 41.72-23.3 40.3-20.75 40.3-17.5L40.3-17.5Q40.3-14.25 41.72-11.7 43.15-9.15 45.65-7.73 48.15-6.3 51.25-6.3L51.25-6.3ZM107.5 0L98.8 0 92.05-9.75 91.64-9.75 84.59-9.75 84.59 0 76.5 0 76.5-35 91.64-35Q96.3-35 99.72-33.45 103.14-31.9 105-29.05 106.84-26.2 106.84-22.3L106.84-22.3Q106.84-18.4 104.97-15.58 103.09-12.75 99.64-11.25L99.64-11.25 107.5 0ZM98.64-22.3Q98.64-25.25 96.75-26.83 94.84-28.4 91.19-28.4L91.19-28.4 84.59-28.4 84.59-16.2 91.19-16.2Q94.84-16.2 96.75-17.8 98.64-19.4 98.64-22.3L98.64-22.3ZM155.64-31.25L152.89-25.2Q148.39-27.8 143.24-28.55L143.24-28.55 143.24 0 135.14 0 135.14-28.55Q129.99-27.8 125.44-25.2L125.44-25.2 122.69-31.25Q126.29-33.4 130.49-34.5 134.69-35.6 139.14-35.6L139.14-35.6Q143.64-35.6 147.87-34.5 152.09-33.4 155.64-31.25L155.64-31.25ZM183.29-35L191.39-35 191.39 0 183.29 0 183.29-14.35 167.39-14.35 167.39 0 159.29 0 159.29-35 167.39-35 167.39-21.2 183.29-21.2 183.29-35ZM225.79-9.1L228.29-3Q225.79-1.3 222.01-0.35 218.24 0.6 213.99 0.6L213.99 0.6Q208.69 0.6 204.99-0.73 201.29-2.05 199.39-4.42 197.49-6.8 197.49-9.85L197.49-9.85Q197.49-12.65 199.04-14.8 200.59-16.95 203.29-18L203.29-18Q201.24-19.1 200.11-21 198.99-22.9 198.99-25.25L198.99-25.25Q198.99-28.1 200.74-30.45 202.49-32.8 206.04-34.2 209.59-35.6 214.74-35.6L214.74-35.6Q218.14-35.6 221.39-34.93 224.64-34.25 227.04-33.1L227.04-33.1 224.79-26.9Q220.19-29.05 215.04-29.05L215.04-29.05Q211.14-29.05 209.16-27.88 207.19-26.7 207.19-24.7L207.19-24.7Q207.19-22.85 208.51-21.88 209.84-20.9 212.54-20.9L212.54-20.9 222.09-20.9 222.09-14.5 212.04-14.5Q208.99-14.5 207.34-13.45 205.69-12.4 205.69-10.4L205.69-10.4Q205.69-8.3 207.81-7.13 209.94-5.95 214.34-5.95L214.34-5.95Q217.44-5.95 220.54-6.78 223.64-7.6 225.79-9.1L225.79-9.1ZM247.18 0L247.18-35 255.28-35 255.28-6.6 272.83-6.6 272.83 0 247.18 0ZM293.73 0.6Q288.28 0.6 283.9-1.75 279.53-4.1 277.05-8.22 274.58-12.35 274.58-17.5L274.58-17.5Q274.58-22.65 277.05-26.78 279.53-30.9 283.9-33.25 288.28-35.6 293.73-35.6L293.73-35.6Q299.18-35.6 303.53-33.25 307.88-30.9 310.38-26.78 312.88-22.65 312.88-17.5L312.88-17.5Q312.88-12.35 310.38-8.22 307.88-4.1 303.53-1.75 299.18 0.6 293.73 0.6L293.73 0.6ZM293.73-6.3Q296.83-6.3 299.33-7.73 301.83-9.15 303.25-11.7 304.68-14.25 304.68-17.5L304.68-17.5Q304.68-20.75 303.25-23.3 301.83-25.85 299.33-27.28 296.83-28.7 293.73-28.7L293.73-28.7Q290.63-28.7 288.13-27.28 285.63-25.85 284.2-23.3 282.78-20.75 282.78-17.5L282.78-17.5Q282.78-14.25 284.2-11.7 285.63-9.15 288.13-7.73 290.63-6.3 293.73-6.3L293.73-6.3ZM343.43-35L351.48-35 336.32 0 328.32 0 313.23-35 321.98-35 332.63-10 343.43-35ZM380.07-9.1L382.57-3Q380.07-1.3 376.3-0.35 372.52 0.6 368.27 0.6L368.27 0.6Q362.97 0.6 359.27-0.73 355.57-2.05 353.67-4.42 351.77-6.8 351.77-9.85L351.77-9.85Q351.77-12.65 353.32-14.8 354.87-16.95 357.57-18L357.57-18Q355.52-19.1 354.4-21 353.27-22.9 353.27-25.25L353.27-25.25Q353.27-28.1 355.02-30.45 356.77-32.8 360.32-34.2 363.87-35.6 369.02-35.6L369.02-35.6Q372.42-35.6 375.67-34.93 378.92-34.25 381.32-33.1L381.32-33.1 379.07-26.9Q374.47-29.05 369.32-29.05L369.32-29.05Q365.42-29.05 363.45-27.88 361.47-26.7 361.47-24.7L361.47-24.7Q361.47-22.85 362.8-21.88 364.12-20.9 366.82-20.9L366.82-20.9 376.37-20.9 376.37-14.5 366.32-14.5Q363.27-14.5 361.62-13.45 359.97-12.4 359.97-10.4L359.97-10.4Q359.97-8.3 362.1-7.13 364.22-5.95 368.62-5.95L368.62-5.95Q371.72-5.95 374.82-6.78 377.92-7.6 380.07-9.1L380.07-9.1ZM418.42 0.6Q412.97 0.6 408.59-1.75 404.22-4.1 401.74-8.22 399.27-12.35 399.27-17.5L399.27-17.5Q399.27-22.65 401.74-26.78 404.22-30.9 408.59-33.25 412.97-35.6 418.42-35.6L418.42-35.6Q423.87-35.6 428.22-33.25 432.57-30.9 435.07-26.78 437.57-22.65 437.57-17.5L437.57-17.5Q437.57-12.35 435.07-8.22 432.57-4.1 428.22-1.75 423.87 0.6 418.42 0.6L418.42 0.6ZM418.42-6.3Q421.52-6.3 424.02-7.73 426.52-9.15 427.94-11.7 429.37-14.25 429.37-17.5L429.37-17.5Q429.37-20.75 427.94-23.3 426.52-25.85 424.02-27.28 421.52-28.7 418.42-28.7L418.42-28.7Q415.32-28.7 412.82-27.28 410.32-25.85 408.89-23.3 407.47-20.75 407.47-17.5L407.47-17.5Q407.47-14.25 408.89-11.7 410.32-9.15 412.82-7.73 415.32-6.3 418.42-6.3L418.42-6.3ZM459.97-28.7Q455.77-28.7 453.62-26.88 451.47-25.05 451.47-21.4L451.47-21.4 451.47-19.25 465.87-19.25 465.87-12.75 451.47-12.75 451.47 0 443.37 0 443.37-21.35Q443.37-28.1 447.59-31.85 451.82-35.6 459.42-35.6L459.42-35.6Q462.42-35.6 465.07-34.98 467.72-34.35 469.67-33.15L469.67-33.15 467.17-26.75Q464.17-28.7 459.97-28.7L459.97-28.7ZM505.31 0.6Q499.96 0.6 495.64-1.73 491.31-4.05 488.84-8.18 486.36-12.3 486.36-17.5L486.36-17.5Q486.36-22.7 488.84-26.83 491.31-30.95 495.64-33.27 499.96-35.6 505.36-35.6L505.36-35.6Q509.91-35.6 513.59-34 517.26-32.4 519.76-29.4L519.76-29.4 514.56-24.6Q511.01-28.7 505.76-28.7L505.76-28.7Q502.51-28.7 499.96-27.28 497.41-25.85 495.99-23.3 494.56-20.75 494.56-17.5L494.56-17.5Q494.56-14.25 495.99-11.7 497.41-9.15 499.96-7.73 502.51-6.3 505.76-6.3L505.76-6.3Q511.01-6.3 514.56-10.45L514.56-10.45 519.76-5.65Q517.26-2.6 513.56-1 509.86 0.6 505.31 0.6L505.31 0.6ZM543.26-28.5L537.21-28.5 537.21-6.5 543.26-6.5 543.26 0 523.01 0 523.01-6.5 529.11-6.5 529.11-28.5 523.01-28.5 523.01-35 543.26-35 543.26-28.5ZM567.9-35.6Q574.15-35.6 577.65-31.68 581.15-27.75 581.15-20.5L581.15-20.5 581.15 0 573.05 0 573.05-20.25Q573.05-24.45 571.08-26.58 569.1-28.7 565.6-28.7L565.6-28.7Q561.9-28.7 559.68-26.43 557.45-24.15 557.45-19.7L557.45-19.7 557.45 0 549.35 0 549.35-35 557.2-35 557.2-30.75Q559-33.15 561.7-34.38 564.4-35.6 567.9-35.6L567.9-35.6ZM615.25-9.1L617.75-3Q615.25-1.3 611.48-0.35 607.7 0.6 603.45 0.6L603.45 0.6Q598.15 0.6 594.45-0.73 590.75-2.05 588.85-4.42 586.95-6.8 586.95-9.85L586.95-9.85Q586.95-12.65 588.5-14.8 590.05-16.95 592.75-18L592.75-18Q590.7-19.1 589.58-21 588.45-22.9 588.45-25.25L588.45-25.25Q588.45-28.1 590.2-30.45 591.95-32.8 595.5-34.2 599.05-35.6 604.2-35.6L604.2-35.6Q607.6-35.6 610.85-34.93 614.1-34.25 616.5-33.1L616.5-33.1 614.25-26.9Q609.65-29.05 604.5-29.05L604.5-29.05Q600.6-29.05 598.63-27.88 596.65-26.7 596.65-24.7L596.65-24.7Q596.65-22.85 597.98-21.88 599.3-20.9 602-20.9L602-20.9 611.55-20.9 611.55-14.5 601.5-14.5Q598.45-14.5 596.8-13.45 595.15-12.4 595.15-10.4L595.15-10.4Q595.15-8.3 597.28-7.13 599.4-5.95 603.8-5.95L603.8-5.95Q606.9-5.95 610-6.78 613.1-7.6 615.25-9.1L615.25-9.1ZM662.45-35.6Q668.65-35.6 672.1-31.98 675.55-28.35 675.55-21.5L675.55-21.5 675.55 0 667.45 0 667.45-21.25Q667.45-24.95 665.52-26.83 663.6-28.7 660.45-28.7L660.45-28.7Q657-28.7 654.95-26.73 652.9-24.75 652.9-20.75L652.9-20.75 652.9 0 644.8 0 644.8-21.25Q644.8-24.95 643-26.83 641.2-28.7 638.1-28.7L638.1-28.7Q634.7-28.7 632.65-26.73 630.6-24.75 630.6-20.75L630.6-20.75 630.6 0 622.5 0 622.5-35 630.35-35 630.35-30.7Q631.95-33.05 634.6-34.33 637.25-35.6 640.7-35.6L640.7-35.6Q644.3-35.6 647-34.27 649.7-32.95 651.15-30.45L651.15-30.45Q652.95-32.95 655.87-34.27 658.8-35.6 662.45-35.6L662.45-35.6ZM699.3-35.6Q704.15-35.6 707.75-33.7 711.35-31.8 713.35-28.1 715.35-24.4 715.35-19.15L715.35-19.15 715.35 0 707.25 0 707.25-8.4 691.25-8.4 691.25 0 683.25 0 683.25-19.15Q683.25-24.4 685.25-28.1 687.25-31.8 690.85-33.7 694.45-35.6 699.3-35.6L699.3-35.6ZM691.25-14.9L707.25-14.9 707.25-19.9Q707.25-24.25 705.1-26.48 702.95-28.7 699.25-28.7L699.25-28.7Q695.5-28.7 693.37-26.48 691.25-24.25 691.25-19.9L691.25-19.9 691.25-14.9Z" opacity="1" transform="matrix(1,0,0,1,0,0)" fill="#ffffff" class="slogan-text-1" data-fill-palette-color="secondary" id="text-1"></path></svg></g></svg></g></svg></g></svg></g><g transform="matrix(1,0,0,1,112.26745446313271,0)"><svg viewBox="0 0 170.98509107373457 138.82620220177444" height="138.82620220177444" width="170.98509107373457"><g><svg xmlns="http://www.w3.org/2000/svg" xmlns:xlink="http://www.w3.org/1999/xlink" version="1.1" x="0" y="0" viewBox="3.187999999999997 11.920000000000009 94.06099999999999 76.36999999999998" enable-background="new 0 0 100 100" xml:space="preserve" height="138.82620220177444" width="170.98509107373457" class="icon-icon-0" data-fill-palette-color="accent" id="icon-0"><g fill="#2f76db" data-fill-palette-color="accent"><path fill="#ffffff" d="M67.022 66.238c4.007-0.975 9.697-2.172 15.654-2.81 0.27-1.359 0.416-2.747 0.416-4.161 0-0.529-0.022-1.056-0.061-1.578v-7.557C80.241 56.723 74.527 62.363 67.022 66.238z" data-fill-palette-color="accent"></path><path fill="#ffffff" d="M43.141 69.965c22.065 0 39.952-12.994 39.952-29.023 0-16.029-17.887-29.022-39.952-29.022-22.065 0-39.952 12.994-39.952 29.022C3.188 56.971 21.076 69.965 43.141 69.965zM9.82 40.94c0-4.666 5.207-8.448 11.63-8.448 6.423 0 11.63 3.783 11.63 8.448 0 4.666-5.207 8.449-11.63 8.449C15.026 49.389 9.82 45.606 9.82 40.94zM76.462 40.94c0 4.666-5.209 8.449-11.632 8.449S53.2 45.606 53.2 40.94c0-4.666 5.207-8.448 11.63-8.448S76.462 36.275 76.462 40.94zM31.509 56.698c0-4.665 5.208-8.449 11.629-8.449 6.424 0 11.631 3.784 11.631 8.449 0 4.667-5.208 8.448-11.631 8.448C36.716 65.146 31.509 61.365 31.509 56.698zM40.176 40.941c0-1.189 1.328-2.153 2.965-2.153s2.965 0.964 2.965 2.153c0 1.189-1.328 2.154-2.965 2.154S40.176 42.131 40.176 40.941zM54.77 25.186c0 4.666-5.208 8.449-11.631 8.449-6.422 0-11.629-3.783-11.629-8.449 0-4.667 5.208-8.449 11.629-8.449C49.562 16.736 54.77 20.519 54.77 25.186z" data-fill-palette-color="accent"></path><path fill="#ffffff" d="M85.484 64.411c-10.738 0.977-24.245 4.428-30.171 6.047-3.854 0.868-7.939 1.339-12.173 1.339-18.725 0-34.613-9.143-39.907-21.701v7.876c-0.026 0.43-0.045 0.861-0.045 1.295 0 16.03 17.887 29.023 39.952 29.023 7.255 0 14.053-1.412 19.916-3.867 22.008-5.756 34.193-3.097 34.193-3.097V64.955C94.481 64.033 90.256 63.978 85.484 64.411z" data-fill-palette-color="accent"></path></g></svg></g></svg></g><g></g></svg></g><defs></defs></svg><rect width="395.52" height="242.34889701875912" fill="none" stroke="none" visibility="hidden"></rect></g></svg></g></svg>